<mxfile host="app.diagrams.net" modified="2021-02-09T09:15:12.660Z" agent="5.0 (X11)" etag="5vJafCIfUTU1AcxNe4jY" version="14.2.2" type="github">
  <diagram id="bi7AYDEld7s9lPhkg7vp" name="Page-1">
    <mxGraphModel dx="1355" dy="804" grid="1" gridSize="10" guides="1" tooltips="1" connect="1" arrows="1" fold="1" page="1" pageScale="1" pageWidth="827" pageHeight="1169" math="0" shadow="0">
      <root>
        <mxCell id="0" />
        <mxCell id="1" parent="0" />
        <mxCell id="GJoj_vCW0Spq7NU7rZpW-1" value="" style="rounded=1;whiteSpace=wrap;html=1;fillColor=#C4E8F5;" parent="1" vertex="1">
          <mxGeometry x="270" y="232.5" width="80" height="30" as="geometry" />
        </mxCell>
        <mxCell id="GJoj_vCW0Spq7NU7rZpW-2" value="" style="rounded=1;whiteSpace=wrap;html=1;fillColor=#C4E8F5;" parent="1" vertex="1">
          <mxGeometry x="680" y="401.25" width="80" height="27.5" as="geometry" />
        </mxCell>
        <mxCell id="GJoj_vCW0Spq7NU7rZpW-3" value="" style="rounded=1;whiteSpace=wrap;html=1;fillColor=#C4E8F5;" parent="1" vertex="1">
          <mxGeometry x="102" y="235" width="70" height="25" as="geometry" />
        </mxCell>
        <mxCell id="GJoj_vCW0Spq7NU7rZpW-4" value="" style="rounded=1;whiteSpace=wrap;html=1;fillColor=#C4E8F5;" parent="1" vertex="1">
          <mxGeometry x="433.13" y="360" width="80" height="25" as="geometry" />
        </mxCell>
        <mxCell id="GJoj_vCW0Spq7NU7rZpW-5" value="" style="rounded=1;whiteSpace=wrap;html=1;fillColor=#C4E8F5;" parent="1" vertex="1">
          <mxGeometry x="433.13" y="450" width="80" height="25" as="geometry" />
        </mxCell>
        <mxCell id="GJoj_vCW0Spq7NU7rZpW-6" value="" style="rounded=1;whiteSpace=wrap;html=1;fillColor=#C4E8F5;" parent="1" vertex="1">
          <mxGeometry x="565" y="405" width="80" height="25" as="geometry" />
        </mxCell>
        <mxCell id="GJoj_vCW0Spq7NU7rZpW-7" value="" style="rounded=1;whiteSpace=wrap;html=1;strokeColor=#36393d;fillColor=#C4E8F5;" parent="1" vertex="1">
          <mxGeometry x="87" y="390" width="100" height="30" as="geometry" />
        </mxCell>
        <mxCell id="GJoj_vCW0Spq7NU7rZpW-22" value="&lt;b&gt;CType&lt;/b&gt;" style="text;html=1;align=center;verticalAlign=middle;resizable=0;points=[];autosize=1;" parent="1" vertex="1">
          <mxGeometry x="112" y="395" width="50" height="20" as="geometry" />
        </mxCell>
        <mxCell id="GJoj_vCW0Spq7NU7rZpW-23" value="&lt;b&gt;Contingency&lt;/b&gt;" style="text;html=1;align=center;verticalAlign=middle;resizable=0;points=[];autosize=1;" parent="1" vertex="1">
          <mxGeometry x="560" y="405" width="90" height="20" as="geometry" />
        </mxCell>
        <mxCell id="GJoj_vCW0Spq7NU7rZpW-24" value="&lt;b&gt;IRequired&lt;/b&gt;" style="text;html=1;align=center;verticalAlign=middle;resizable=0;points=[];autosize=1;" parent="1" vertex="1">
          <mxGeometry x="437.26" y="450" width="70" height="20" as="geometry" />
        </mxCell>
        <mxCell id="GJoj_vCW0Spq7NU7rZpW-25" value="&lt;b&gt;IProvided&lt;/b&gt;" style="text;html=1;align=center;verticalAlign=middle;resizable=0;points=[];autosize=1;" parent="1" vertex="1">
          <mxGeometry x="438.13" y="360" width="70" height="20" as="geometry" />
        </mxCell>
        <mxCell id="GJoj_vCW0Spq7NU7rZpW-26" value="&lt;b&gt;Parameter&lt;/b&gt;" style="text;html=1;align=center;verticalAlign=middle;resizable=0;points=[];autosize=1;" parent="1" vertex="1">
          <mxGeometry x="102" y="235" width="70" height="20" as="geometry" />
        </mxCell>
        <mxCell id="GJoj_vCW0Spq7NU7rZpW-27" value="&lt;b&gt;IType&lt;/b&gt;" style="text;html=1;align=center;verticalAlign=middle;resizable=0;points=[];autosize=1;" parent="1" vertex="1">
          <mxGeometry x="694" y="403.75" width="50" height="20" as="geometry" />
        </mxCell>
        <mxCell id="GJoj_vCW0Spq7NU7rZpW-28" value="&lt;b&gt;PType&lt;/b&gt;" style="text;html=1;align=center;verticalAlign=middle;resizable=0;points=[];autosize=1;" parent="1" vertex="1">
          <mxGeometry x="281.6600000000001" y="232.5" width="50" height="20" as="geometry" />
        </mxCell>
        <mxCell id="GJoj_vCW0Spq7NU7rZpW-29" value="" style="rounded=1;whiteSpace=wrap;html=1;fillColor=#C4E8F5;" parent="1" vertex="1">
          <mxGeometry x="100" y="590" width="60" height="30" as="geometry" />
        </mxCell>
        <mxCell id="GJoj_vCW0Spq7NU7rZpW-30" value="&lt;font style=&quot;font-size: 12px&quot;&gt;&lt;b&gt;State&lt;/b&gt;&lt;/font&gt;" style="text;html=1;align=center;verticalAlign=middle;resizable=0;points=[];autosize=1;" parent="1" vertex="1">
          <mxGeometry x="112" y="595" width="40" height="20" as="geometry" />
        </mxCell>
        <mxCell id="GJoj_vCW0Spq7NU7rZpW-49" value="" style="curved=1;endArrow=classic;html=1;exitX=0;exitY=0.5;exitDx=0;exitDy=0;strokeWidth=2;entryX=0.17;entryY=0;entryDx=0;entryDy=0;entryPerimeter=0;" parent="1" source="GJoj_vCW0Spq7NU7rZpW-7" target="GJoj_vCW0Spq7NU7rZpW-7" edge="1">
          <mxGeometry width="50" height="50" relative="1" as="geometry">
            <mxPoint x="35" y="400" as="sourcePoint" />
            <mxPoint x="100" y="387" as="targetPoint" />
            <Array as="points">
              <mxPoint x="47" y="387" />
              <mxPoint x="80" y="360" />
            </Array>
          </mxGeometry>
        </mxCell>
        <mxCell id="GJoj_vCW0Spq7NU7rZpW-50" value="ParentType" style="text;html=1;align=center;verticalAlign=middle;resizable=0;points=[];autosize=1;" parent="1" vertex="1">
          <mxGeometry x="32" y="350" width="80" height="20" as="geometry" />
        </mxCell>
        <mxCell id="GJoj_vCW0Spq7NU7rZpW-51" value="" style="endArrow=classic;startArrow=classic;html=1;strokeWidth=2;entryX=0.5;entryY=1;entryDx=0;entryDy=0;" parent="1" source="GJoj_vCW0Spq7NU7rZpW-24" target="GJoj_vCW0Spq7NU7rZpW-4" edge="1">
          <mxGeometry width="50" height="50" relative="1" as="geometry">
            <mxPoint x="390" y="440" as="sourcePoint" />
            <mxPoint x="440" y="390" as="targetPoint" />
          </mxGeometry>
        </mxCell>
        <mxCell id="GJoj_vCW0Spq7NU7rZpW-52" value="" style="curved=1;endArrow=classic;html=1;strokeWidth=2;exitX=0.5;exitY=1;exitDx=0;exitDy=0;" parent="1" source="GJoj_vCW0Spq7NU7rZpW-5" edge="1">
          <mxGeometry width="50" height="50" relative="1" as="geometry">
            <mxPoint x="383.13" y="520" as="sourcePoint" />
            <mxPoint x="433.13" y="470" as="targetPoint" />
            <Array as="points">
              <mxPoint x="433.13" y="520" />
              <mxPoint x="400" y="490" />
            </Array>
          </mxGeometry>
        </mxCell>
        <mxCell id="GJoj_vCW0Spq7NU7rZpW-53" value="DelegateReq" style="text;html=1;align=center;verticalAlign=middle;resizable=0;points=[];autosize=1;" parent="1" vertex="1">
          <mxGeometry x="390" y="510" width="80" height="20" as="geometry" />
        </mxCell>
        <mxCell id="GJoj_vCW0Spq7NU7rZpW-54" value="" style="curved=1;endArrow=classic;html=1;strokeWidth=2;entryX=0;entryY=0.25;entryDx=0;entryDy=0;exitX=0.584;exitY=-0.05;exitDx=0;exitDy=0;exitPerimeter=0;" parent="1" source="GJoj_vCW0Spq7NU7rZpW-25" target="GJoj_vCW0Spq7NU7rZpW-4" edge="1">
          <mxGeometry width="50" height="50" relative="1" as="geometry">
            <mxPoint x="460" y="350" as="sourcePoint" />
            <mxPoint x="443.1300000000001" y="300" as="targetPoint" />
            <Array as="points">
              <mxPoint x="450" y="320" />
              <mxPoint x="410" y="320" />
            </Array>
          </mxGeometry>
        </mxCell>
        <mxCell id="GJoj_vCW0Spq7NU7rZpW-55" value="DelegateProv" style="text;html=1;align=center;verticalAlign=middle;resizable=0;points=[];autosize=1;" parent="1" vertex="1">
          <mxGeometry x="358.75" y="300" width="90" height="20" as="geometry" />
        </mxCell>
        <mxCell id="GJoj_vCW0Spq7NU7rZpW-56" value="Binding" style="text;html=1;align=center;verticalAlign=middle;resizable=0;points=[];autosize=1;" parent="1" vertex="1">
          <mxGeometry x="410" y="405" width="60" height="20" as="geometry" />
        </mxCell>
        <mxCell id="GJoj_vCW0Spq7NU7rZpW-58" value="" style="curved=1;endArrow=classic;html=1;strokeWidth=2;exitX=1;exitY=0.25;exitDx=0;exitDy=0;entryX=0;entryY=1;entryDx=0;entryDy=0;" parent="1" source="GJoj_vCW0Spq7NU7rZpW-5" edge="1" target="GJoj_vCW0Spq7NU7rZpW-6">
          <mxGeometry width="50" height="50" relative="1" as="geometry">
            <mxPoint x="523.1300000000001" y="388.75" as="sourcePoint" />
            <mxPoint x="590" y="433" as="targetPoint" />
            <Array as="points">
              <mxPoint x="530" y="440" />
            </Array>
          </mxGeometry>
        </mxCell>
        <mxCell id="GJoj_vCW0Spq7NU7rZpW-60" value="" style="curved=1;endArrow=classic;html=1;strokeWidth=2;exitX=1;exitY=0;exitDx=0;exitDy=0;" parent="1" source="GJoj_vCW0Spq7NU7rZpW-4" edge="1">
          <mxGeometry width="50" height="50" relative="1" as="geometry">
            <mxPoint x="533.1300000000001" y="398.75" as="sourcePoint" />
            <mxPoint x="690" y="400" as="targetPoint" />
            <Array as="points">
              <mxPoint x="620" y="340" />
            </Array>
          </mxGeometry>
        </mxCell>
        <mxCell id="GJoj_vCW0Spq7NU7rZpW-61" value="" style="curved=1;endArrow=classic;html=1;strokeWidth=2;exitX=1;exitY=1;exitDx=0;exitDy=0;" parent="1" source="GJoj_vCW0Spq7NU7rZpW-5" edge="1">
          <mxGeometry width="50" height="50" relative="1" as="geometry">
            <mxPoint x="523.1300000000001" y="370" as="sourcePoint" />
            <mxPoint x="700" y="430" as="targetPoint" />
            <Array as="points">
              <mxPoint x="650" y="490" />
            </Array>
          </mxGeometry>
        </mxCell>
        <mxCell id="GJoj_vCW0Spq7NU7rZpW-62" value="IContingency" style="text;html=1;align=center;verticalAlign=middle;resizable=0;points=[];autosize=1;" parent="1" vertex="1">
          <mxGeometry x="520" y="380" width="90" height="20" as="geometry" />
        </mxCell>
        <mxCell id="GJoj_vCW0Spq7NU7rZpW-63" value="IContingency" style="text;html=1;align=center;verticalAlign=middle;resizable=0;points=[];autosize=1;" parent="1" vertex="1">
          <mxGeometry x="520" y="440" width="90" height="20" as="geometry" />
        </mxCell>
        <mxCell id="GJoj_vCW0Spq7NU7rZpW-64" value="IProvidedType" style="text;html=1;align=center;verticalAlign=middle;resizable=0;points=[];autosize=1;" parent="1" vertex="1">
          <mxGeometry x="595" y="340" width="90" height="20" as="geometry" />
        </mxCell>
        <mxCell id="GJoj_vCW0Spq7NU7rZpW-65" value="IRequiredType" style="text;html=1;align=center;verticalAlign=middle;resizable=0;points=[];autosize=1;" parent="1" vertex="1">
          <mxGeometry x="595" y="475" width="90" height="20" as="geometry" />
        </mxCell>
        <mxCell id="GJoj_vCW0Spq7NU7rZpW-66" value="" style="endArrow=classic;html=1;strokeWidth=2;entryX=1;entryY=0.5;entryDx=0;entryDy=0;exitX=0;exitY=0.5;exitDx=0;exitDy=0;" parent="1" source="GJoj_vCW0Spq7NU7rZpW-4" target="GJoj_vCW0Spq7NU7rZpW-7" edge="1">
          <mxGeometry width="50" height="50" relative="1" as="geometry">
            <mxPoint x="390" y="440" as="sourcePoint" />
            <mxPoint x="440" y="390" as="targetPoint" />
          </mxGeometry>
        </mxCell>
        <mxCell id="GJoj_vCW0Spq7NU7rZpW-67" value="Provider" style="text;html=1;align=center;verticalAlign=middle;resizable=0;points=[];autosize=1;" parent="1" vertex="1">
          <mxGeometry x="270" y="362.5" width="60" height="20" as="geometry" />
        </mxCell>
        <mxCell id="GJoj_vCW0Spq7NU7rZpW-68" value="" style="endArrow=classic;html=1;strokeWidth=2;entryX=1;entryY=0.75;entryDx=0;entryDy=0;exitX=-0.061;exitY=0.4;exitDx=0;exitDy=0;exitPerimeter=0;" parent="1" source="GJoj_vCW0Spq7NU7rZpW-24" target="GJoj_vCW0Spq7NU7rZpW-7" edge="1">
          <mxGeometry width="50" height="50" relative="1" as="geometry">
            <mxPoint x="430" y="460" as="sourcePoint" />
            <mxPoint x="440" y="390" as="targetPoint" />
          </mxGeometry>
        </mxCell>
        <mxCell id="GJoj_vCW0Spq7NU7rZpW-69" value="Requirer" style="text;html=1;align=center;verticalAlign=middle;resizable=0;points=[];autosize=1;" parent="1" vertex="1">
          <mxGeometry x="270" y="440" width="60" height="20" as="geometry" />
        </mxCell>
        <mxCell id="GJoj_vCW0Spq7NU7rZpW-70" value="" style="endArrow=classic;html=1;strokeWidth=2;entryX=0.5;entryY=0;entryDx=0;entryDy=0;dashed=1;" parent="1" target="GJoj_vCW0Spq7NU7rZpW-29" edge="1">
          <mxGeometry width="50" height="50" relative="1" as="geometry">
            <mxPoint x="130" y="530" as="sourcePoint" />
            <mxPoint x="433" y="730" as="targetPoint" />
          </mxGeometry>
        </mxCell>
        <mxCell id="GJoj_vCW0Spq7NU7rZpW-71" value="&lt;i&gt;States&lt;/i&gt;" style="text;html=1;align=center;verticalAlign=middle;resizable=0;points=[];autosize=1;" parent="1" vertex="1">
          <mxGeometry x="130" y="545" width="50" height="20" as="geometry" />
        </mxCell>
        <mxCell id="GJoj_vCW0Spq7NU7rZpW-72" value="" style="endArrow=classic;html=1;strokeWidth=2;entryX=0;entryY=0.5;entryDx=0;entryDy=0;" parent="1" target="GJoj_vCW0Spq7NU7rZpW-1" edge="1">
          <mxGeometry width="50" height="50" relative="1" as="geometry">
            <mxPoint x="172" y="248" as="sourcePoint" />
            <mxPoint x="200" y="440" as="targetPoint" />
          </mxGeometry>
        </mxCell>
        <mxCell id="GJoj_vCW0Spq7NU7rZpW-73" value="" style="endArrow=classic;html=1;strokeWidth=2;exitX=0.5;exitY=1;exitDx=0;exitDy=0;entryX=0.5;entryY=0;entryDx=0;entryDy=0;" parent="1" source="GJoj_vCW0Spq7NU7rZpW-3" target="GJoj_vCW0Spq7NU7rZpW-7" edge="1">
          <mxGeometry width="50" height="50" relative="1" as="geometry">
            <mxPoint x="350" y="350" as="sourcePoint" />
            <mxPoint x="110" y="350" as="targetPoint" />
          </mxGeometry>
        </mxCell>
        <mxCell id="GJoj_vCW0Spq7NU7rZpW-74" value="Definer" style="text;html=1;align=center;verticalAlign=middle;resizable=0;points=[];autosize=1;" parent="1" vertex="1">
          <mxGeometry x="135" y="310" width="50" height="20" as="geometry" />
        </mxCell>
        <mxCell id="GJoj_vCW0Spq7NU7rZpW-75" value="Components" style="rounded=1;whiteSpace=wrap;html=1;strokeColor=#666666;fillColor=#f5f5f5;fontColor=#333333;dashed=1;" parent="1" vertex="1">
          <mxGeometry x="80" y="500" width="100" height="30" as="geometry" />
        </mxCell>
        <mxCell id="GJoj_vCW0Spq7NU7rZpW-77" value="" style="curved=1;endArrow=classic;html=1;strokeWidth=2;entryX=0.16;entryY=1.033;entryDx=0;entryDy=0;entryPerimeter=0;" parent="1" target="GJoj_vCW0Spq7NU7rZpW-7" edge="1">
          <mxGeometry width="50" height="50" relative="1" as="geometry">
            <mxPoint x="87" y="410" as="sourcePoint" />
            <mxPoint x="140" y="440" as="targetPoint" />
            <Array as="points">
              <mxPoint x="50" y="420" />
              <mxPoint x="87" y="452" />
            </Array>
          </mxGeometry>
        </mxCell>
        <mxCell id="GJoj_vCW0Spq7NU7rZpW-78" value="ChildType" style="text;html=1;align=center;verticalAlign=middle;resizable=0;points=[];autosize=1;" parent="1" vertex="1">
          <mxGeometry x="42" y="450" width="70" height="20" as="geometry" />
        </mxCell>
        <mxCell id="GJoj_vCW0Spq7NU7rZpW-79" value="" style="curved=1;endArrow=classic;html=1;strokeWidth=2;entryX=0.75;entryY=1;entryDx=0;entryDy=0;exitX=1;exitY=0.75;exitDx=0;exitDy=0;" parent="1" source="GJoj_vCW0Spq7NU7rZpW-7" target="GJoj_vCW0Spq7NU7rZpW-7" edge="1">
          <mxGeometry width="50" height="50" relative="1" as="geometry">
            <mxPoint x="190" y="420" as="sourcePoint" />
            <mxPoint x="243" y="440.99" as="targetPoint" />
            <Array as="points">
              <mxPoint x="210" y="440" />
              <mxPoint x="160" y="450" />
            </Array>
          </mxGeometry>
        </mxCell>
        <mxCell id="GJoj_vCW0Spq7NU7rZpW-80" value="DescendantType" style="text;html=1;align=center;verticalAlign=middle;resizable=0;points=[];autosize=1;" parent="1" vertex="1">
          <mxGeometry x="132" y="450" width="100" height="20" as="geometry" />
        </mxCell>
        <mxCell id="GJoj_vCW0Spq7NU7rZpW-83" value="" style="curved=1;endArrow=classic;html=1;strokeWidth=2;entryX=0.75;entryY=0;entryDx=0;entryDy=0;exitX=1;exitY=0.25;exitDx=0;exitDy=0;" parent="1" source="GJoj_vCW0Spq7NU7rZpW-7" target="GJoj_vCW0Spq7NU7rZpW-7" edge="1">
          <mxGeometry width="50" height="50" relative="1" as="geometry">
            <mxPoint x="230" y="360" as="sourcePoint" />
            <mxPoint x="233" y="340.99" as="targetPoint" />
            <Array as="points">
              <mxPoint x="220" y="380" />
              <mxPoint x="170" y="350" />
            </Array>
          </mxGeometry>
        </mxCell>
        <mxCell id="GJoj_vCW0Spq7NU7rZpW-84" value="AncestorType" style="text;html=1;align=center;verticalAlign=middle;resizable=0;points=[];autosize=1;" parent="1" vertex="1">
          <mxGeometry x="142" y="342.5" width="90" height="20" as="geometry" />
        </mxCell>
        <mxCell id="4fyfNdcSyc0zplEerzJb-1" value="&lt;div&gt;ParameterType&lt;/div&gt;" style="text;html=1;align=center;verticalAlign=middle;resizable=0;points=[];autosize=1;" vertex="1" parent="1">
          <mxGeometry x="170" y="220" width="100" height="20" as="geometry" />
        </mxCell>
        <mxCell id="4fyfNdcSyc0zplEerzJb-5" value="" style="curved=1;endArrow=classic;html=1;strokeWidth=2;entryX=0.051;entryY=0.084;entryDx=0;entryDy=0;entryPerimeter=0;exitX=0.983;exitY=0.901;exitDx=0;exitDy=0;exitPerimeter=0;" edge="1" parent="1" source="GJoj_vCW0Spq7NU7rZpW-4" target="GJoj_vCW0Spq7NU7rZpW-23">
          <mxGeometry width="50" height="50" relative="1" as="geometry">
            <mxPoint x="513" y="385" as="sourcePoint" />
            <mxPoint x="530" y="410" as="targetPoint" />
            <Array as="points">
              <mxPoint x="520" y="400" />
            </Array>
          </mxGeometry>
        </mxCell>
      </root>
    </mxGraphModel>
  </diagram>
</mxfile>
